<?xml version="1.0" encoding="UTF-8" standalone="no" ?>
<!DOCTYPE svg PUBLIC "-//W3C//DTD SVG 1.1//EN" "http://www.w3.org/Graphics/SVG/1.1/DTD/svg11.dtd">
<svg xmlns="http://www.w3.org/2000/svg" xmlns:xlink="http://www.w3.org/1999/xlink" version="1.1" width="600" height="600" viewBox="0 0 600 600" xml:space="preserve">
<desc>Created with Fabric.js 4.0.0-beta.8</desc>
<defs>
</defs>
<g transform="matrix(1 0 0 1 300.5 300.5)"  >
<rect style="stroke: none; stroke-width: 1; stroke-dasharray: none; stroke-linecap: butt; stroke-dashoffset: 0; stroke-linejoin: miter; stroke-miterlimit: 4; fill: rgb(255,255,255); fill-rule: nonzero; opacity: 1;"  x="-300" y="-300" rx="0" ry="0" width="600" height="600" />
</g>
<g transform="matrix(0.05 0 0 0.05 60 60)"  >
<path style="stroke: none; stroke-width: 1; stroke-dasharray: none; stroke-linecap: butt; stroke-dashoffset: 0; stroke-linejoin: miter; stroke-miterlimit: 4; fill: rgb(0,0,0); fill-rule: nonzero; opacity: 1;"  transform=" translate(-53, -53)" d="m 53 106 c -29.2 0 -53 -23.8 -53 -53 s 23.8 -53 53 -53 c 29.2 0 53 23.8 53 53 s -23.8 53 -53 53 z m 0 -96 c -23.7 0 -43 19.3 -43 43 s 19.3 43 43 43 s 43 -19.3 43 -43 s -19.3 -43 -43 -43 z" stroke-linecap="round" />
</g>
<g transform="matrix(0.05 0 0 0.05 140 60)"  >
<path style="stroke: none; stroke-width: 1; stroke-dasharray: none; stroke-linecap: butt; stroke-dashoffset: 0; stroke-linejoin: miter; stroke-miterlimit: 4; fill: rgb(0,0,0); fill-rule: nonzero; opacity: 1;"  transform=" translate(-53, -53)" d="m 53 106 c -29.2 0 -53 -23.8 -53 -53 s 23.8 -53 53 -53 c 29.2 0 53 23.8 53 53 s -23.8 53 -53 53 z m 0 -96 c -23.7 0 -43 19.3 -43 43 s 19.3 43 43 43 s 43 -19.3 43 -43 s -19.3 -43 -43 -43 z" stroke-linecap="round" />
</g>
<g transform="matrix(0.05 0 0 0.05 220 60)"  >
<path style="stroke: none; stroke-width: 1; stroke-dasharray: none; stroke-linecap: butt; stroke-dashoffset: 0; stroke-linejoin: miter; stroke-miterlimit: 4; fill: rgb(0,0,0); fill-rule: nonzero; opacity: 1;"  transform=" translate(-53, -53)" d="m 53 106 c -29.2 0 -53 -23.8 -53 -53 s 23.8 -53 53 -53 c 29.2 0 53 23.8 53 53 s -23.8 53 -53 53 z m 0 -96 c -23.7 0 -43 19.3 -43 43 s 19.3 43 43 43 s 43 -19.3 43 -43 s -19.3 -43 -43 -43 z" stroke-linecap="round" />
</g>
<g transform="matrix(0.05 0 0 0.05 300 60)"  >
<path style="stroke: none; stroke-width: 1; stroke-dasharray: none; stroke-linecap: butt; stroke-dashoffset: 0; stroke-linejoin: miter; stroke-miterlimit: 4; fill: rgb(0,0,0); fill-rule: nonzero; opacity: 1;"  transform=" translate(-53, -53)" d="m 53 106 c -29.2 0 -53 -23.8 -53 -53 s 23.8 -53 53 -53 c 29.2 0 53 23.8 53 53 s -23.8 53 -53 53 z m 0 -96 c -23.7 0 -43 19.3 -43 43 s 19.3 43 43 43 s 43 -19.3 43 -43 s -19.3 -43 -43 -43 z" stroke-linecap="round" />
</g>
<g transform="matrix(0.05 0 0 0.05 380 60)"  >
<path style="stroke: none; stroke-width: 1; stroke-dasharray: none; stroke-linecap: butt; stroke-dashoffset: 0; stroke-linejoin: miter; stroke-miterlimit: 4; fill: rgb(0,0,0); fill-rule: nonzero; opacity: 1;"  transform=" translate(-53, -53)" d="m 53 106 c -29.2 0 -53 -23.8 -53 -53 s 23.8 -53 53 -53 c 29.2 0 53 23.8 53 53 s -23.8 53 -53 53 z m 0 -96 c -23.7 0 -43 19.3 -43 43 s 19.3 43 43 43 s 43 -19.3 43 -43 s -19.3 -43 -43 -43 z" stroke-linecap="round" />
</g>
<g transform="matrix(0.05 0 0 0.05 460 60)"  >
<path style="stroke: none; stroke-width: 1; stroke-dasharray: none; stroke-linecap: butt; stroke-dashoffset: 0; stroke-linejoin: miter; stroke-miterlimit: 4; fill: rgb(0,0,0); fill-rule: nonzero; opacity: 1;"  transform=" translate(-53, -53)" d="m 53 106 c -29.2 0 -53 -23.8 -53 -53 s 23.8 -53 53 -53 c 29.2 0 53 23.8 53 53 s -23.8 53 -53 53 z m 0 -96 c -23.7 0 -43 19.3 -43 43 s 19.3 43 43 43 s 43 -19.3 43 -43 s -19.3 -43 -43 -43 z" stroke-linecap="round" />
</g>
<g transform="matrix(0.05 0 0 0.05 540 60)"  >
<path style="stroke: none; stroke-width: 1; stroke-dasharray: none; stroke-linecap: butt; stroke-dashoffset: 0; stroke-linejoin: miter; stroke-miterlimit: 4; fill: rgb(0,0,0); fill-rule: nonzero; opacity: 1;"  transform=" translate(-53, -53)" d="m 53 106 c -29.2 0 -53 -23.8 -53 -53 s 23.8 -53 53 -53 c 29.2 0 53 23.8 53 53 s -23.8 53 -53 53 z m 0 -96 c -23.7 0 -43 19.3 -43 43 s 19.3 43 43 43 s 43 -19.3 43 -43 s -19.3 -43 -43 -43 z" stroke-linecap="round" />
</g>
<g transform="matrix(0.05 0 0 0.05 100 140)"  >
<path style="stroke: none; stroke-width: 1; stroke-dasharray: none; stroke-linecap: butt; stroke-dashoffset: 0; stroke-linejoin: miter; stroke-miterlimit: 4; fill: rgb(0,0,0); fill-rule: nonzero; opacity: 1;"  transform=" translate(-53, -53)" d="m 53 106 c -29.2 0 -53 -23.8 -53 -53 s 23.8 -53 53 -53 c 29.2 0 53 23.8 53 53 s -23.8 53 -53 53 z m 0 -96 c -23.7 0 -43 19.3 -43 43 s 19.3 43 43 43 s 43 -19.3 43 -43 s -19.3 -43 -43 -43 z" stroke-linecap="round" />
</g>
<g transform="matrix(0.05 0 0 0.05 180 140)"  >
<path style="stroke: none; stroke-width: 1; stroke-dasharray: none; stroke-linecap: butt; stroke-dashoffset: 0; stroke-linejoin: miter; stroke-miterlimit: 4; fill: rgb(0,0,0); fill-rule: nonzero; opacity: 1;"  transform=" translate(-53, -53)" d="m 53 106 c -29.2 0 -53 -23.8 -53 -53 s 23.8 -53 53 -53 c 29.2 0 53 23.8 53 53 s -23.8 53 -53 53 z m 0 -96 c -23.7 0 -43 19.3 -43 43 s 19.3 43 43 43 s 43 -19.3 43 -43 s -19.3 -43 -43 -43 z" stroke-linecap="round" />
</g>
<g transform="matrix(0.05 0 0 0.05 260 140)"  >
<path style="stroke: none; stroke-width: 1; stroke-dasharray: none; stroke-linecap: butt; stroke-dashoffset: 0; stroke-linejoin: miter; stroke-miterlimit: 4; fill: rgb(0,0,0); fill-rule: nonzero; opacity: 1;"  transform=" translate(-53, -53)" d="m 53 106 c -29.2 0 -53 -23.8 -53 -53 s 23.8 -53 53 -53 c 29.2 0 53 23.8 53 53 s -23.8 53 -53 53 z m 0 -96 c -23.7 0 -43 19.3 -43 43 s 19.3 43 43 43 s 43 -19.3 43 -43 s -19.3 -43 -43 -43 z" stroke-linecap="round" />
</g>
<g transform="matrix(0.05 0 0 0.05 340 140)"  >
<path style="stroke: none; stroke-width: 1; stroke-dasharray: none; stroke-linecap: butt; stroke-dashoffset: 0; stroke-linejoin: miter; stroke-miterlimit: 4; fill: rgb(0,0,0); fill-rule: nonzero; opacity: 1;"  transform=" translate(-53, -53)" d="m 53 106 c -29.2 0 -53 -23.8 -53 -53 s 23.8 -53 53 -53 c 29.2 0 53 23.8 53 53 s -23.8 53 -53 53 z m 0 -96 c -23.7 0 -43 19.3 -43 43 s 19.3 43 43 43 s 43 -19.3 43 -43 s -19.3 -43 -43 -43 z" stroke-linecap="round" />
</g>
<g transform="matrix(0.05 0 0 0.05 420 140)"  >
<path style="stroke: none; stroke-width: 1; stroke-dasharray: none; stroke-linecap: butt; stroke-dashoffset: 0; stroke-linejoin: miter; stroke-miterlimit: 4; fill: rgb(0,0,0); fill-rule: nonzero; opacity: 1;"  transform=" translate(-53, -53)" d="m 53 106 c -29.2 0 -53 -23.8 -53 -53 s 23.8 -53 53 -53 c 29.2 0 53 23.8 53 53 s -23.8 53 -53 53 z m 0 -96 c -23.7 0 -43 19.3 -43 43 s 19.3 43 43 43 s 43 -19.3 43 -43 s -19.3 -43 -43 -43 z" stroke-linecap="round" />
</g>
<g transform="matrix(0.05 0 0 0.05 500 140)"  >
<path style="stroke: none; stroke-width: 1; stroke-dasharray: none; stroke-linecap: butt; stroke-dashoffset: 0; stroke-linejoin: miter; stroke-miterlimit: 4; fill: rgb(0,0,0); fill-rule: nonzero; opacity: 1;"  transform=" translate(-53, -53)" d="m 53 106 c -29.2 0 -53 -23.8 -53 -53 s 23.8 -53 53 -53 c 29.2 0 53 23.8 53 53 s -23.8 53 -53 53 z m 0 -96 c -23.7 0 -43 19.3 -43 43 s 19.3 43 43 43 s 43 -19.3 43 -43 s -19.3 -43 -43 -43 z" stroke-linecap="round" />
</g>
<g transform="matrix(0.05 0 0 0.05 60 220)"  >
<path style="stroke: none; stroke-width: 1; stroke-dasharray: none; stroke-linecap: butt; stroke-dashoffset: 0; stroke-linejoin: miter; stroke-miterlimit: 4; fill: rgb(0,0,0); fill-rule: nonzero; opacity: 1;"  transform=" translate(-53, -53)" d="m 53 106 c -29.2 0 -53 -23.8 -53 -53 s 23.8 -53 53 -53 c 29.2 0 53 23.8 53 53 s -23.8 53 -53 53 z m 0 -96 c -23.7 0 -43 19.3 -43 43 s 19.3 43 43 43 s 43 -19.3 43 -43 s -19.3 -43 -43 -43 z" stroke-linecap="round" />
</g>
<g transform="matrix(0.05 0 0 0.05 140 220)"  >
<path style="stroke: none; stroke-width: 1; stroke-dasharray: none; stroke-linecap: butt; stroke-dashoffset: 0; stroke-linejoin: miter; stroke-miterlimit: 4; fill: rgb(0,0,0); fill-rule: nonzero; opacity: 1;"  transform=" translate(-53, -53)" d="m 53 106 c -29.2 0 -53 -23.8 -53 -53 s 23.8 -53 53 -53 c 29.2 0 53 23.8 53 53 s -23.8 53 -53 53 z m 0 -96 c -23.7 0 -43 19.3 -43 43 s 19.3 43 43 43 s 43 -19.3 43 -43 s -19.3 -43 -43 -43 z" stroke-linecap="round" />
</g>
<g transform="matrix(0.05 0 0 0.05 220 220)"  >
<path style="stroke: none; stroke-width: 1; stroke-dasharray: none; stroke-linecap: butt; stroke-dashoffset: 0; stroke-linejoin: miter; stroke-miterlimit: 4; fill: rgb(0,0,0); fill-rule: nonzero; opacity: 1;"  transform=" translate(-53, -53)" d="m 53 106 c -29.2 0 -53 -23.8 -53 -53 s 23.8 -53 53 -53 c 29.2 0 53 23.8 53 53 s -23.8 53 -53 53 z m 0 -96 c -23.7 0 -43 19.3 -43 43 s 19.3 43 43 43 s 43 -19.3 43 -43 s -19.3 -43 -43 -43 z" stroke-linecap="round" />
</g>
<g transform="matrix(0.05 0 0 0.05 300 220)"  >
<path style="stroke: none; stroke-width: 1; stroke-dasharray: none; stroke-linecap: butt; stroke-dashoffset: 0; stroke-linejoin: miter; stroke-miterlimit: 4; fill: rgb(0,0,0); fill-rule: nonzero; opacity: 1;"  transform=" translate(-53, -53)" d="m 53 106 c -29.2 0 -53 -23.8 -53 -53 s 23.8 -53 53 -53 c 29.2 0 53 23.8 53 53 s -23.8 53 -53 53 z m 0 -96 c -23.7 0 -43 19.3 -43 43 s 19.3 43 43 43 s 43 -19.3 43 -43 s -19.3 -43 -43 -43 z" stroke-linecap="round" />
</g>
<g transform="matrix(0.05 0 0 0.05 380 220)"  >
<path style="stroke: none; stroke-width: 1; stroke-dasharray: none; stroke-linecap: butt; stroke-dashoffset: 0; stroke-linejoin: miter; stroke-miterlimit: 4; fill: rgb(0,0,0); fill-rule: nonzero; opacity: 1;"  transform=" translate(-53, -53)" d="m 53 106 c -29.2 0 -53 -23.8 -53 -53 s 23.8 -53 53 -53 c 29.2 0 53 23.8 53 53 s -23.8 53 -53 53 z m 0 -96 c -23.7 0 -43 19.3 -43 43 s 19.3 43 43 43 s 43 -19.3 43 -43 s -19.3 -43 -43 -43 z" stroke-linecap="round" />
</g>
<g transform="matrix(0.05 0 0 0.05 460 220)"  >
<path style="stroke: none; stroke-width: 1; stroke-dasharray: none; stroke-linecap: butt; stroke-dashoffset: 0; stroke-linejoin: miter; stroke-miterlimit: 4; fill: rgb(0,0,0); fill-rule: nonzero; opacity: 1;"  transform=" translate(-53, -53)" d="m 53 106 c -29.2 0 -53 -23.8 -53 -53 s 23.8 -53 53 -53 c 29.2 0 53 23.8 53 53 s -23.8 53 -53 53 z m 0 -96 c -23.7 0 -43 19.3 -43 43 s 19.3 43 43 43 s 43 -19.3 43 -43 s -19.3 -43 -43 -43 z" stroke-linecap="round" />
</g>
<g transform="matrix(0.05 0 0 0.05 540 220)"  >
<path style="stroke: none; stroke-width: 1; stroke-dasharray: none; stroke-linecap: butt; stroke-dashoffset: 0; stroke-linejoin: miter; stroke-miterlimit: 4; fill: rgb(0,0,0); fill-rule: nonzero; opacity: 1;"  transform=" translate(-53, -53)" d="m 53 106 c -29.2 0 -53 -23.8 -53 -53 s 23.8 -53 53 -53 c 29.2 0 53 23.8 53 53 s -23.8 53 -53 53 z m 0 -96 c -23.7 0 -43 19.3 -43 43 s 19.3 43 43 43 s 43 -19.3 43 -43 s -19.3 -43 -43 -43 z" stroke-linecap="round" />
</g>
<g transform="matrix(0.05 0 0 0.05 100 300)"  >
<path style="stroke: none; stroke-width: 1; stroke-dasharray: none; stroke-linecap: butt; stroke-dashoffset: 0; stroke-linejoin: miter; stroke-miterlimit: 4; fill: rgb(0,0,0); fill-rule: nonzero; opacity: 1;"  transform=" translate(-53, -53)" d="m 53 106 c -29.2 0 -53 -23.8 -53 -53 s 23.8 -53 53 -53 c 29.2 0 53 23.8 53 53 s -23.8 53 -53 53 z m 0 -96 c -23.7 0 -43 19.3 -43 43 s 19.3 43 43 43 s 43 -19.3 43 -43 s -19.3 -43 -43 -43 z" stroke-linecap="round" />
</g>
<g transform="matrix(0.05 0 0 0.05 180 300)"  >
<path style="stroke: none; stroke-width: 1; stroke-dasharray: none; stroke-linecap: butt; stroke-dashoffset: 0; stroke-linejoin: miter; stroke-miterlimit: 4; fill: rgb(0,0,0); fill-rule: nonzero; opacity: 1;"  transform=" translate(-53, -53)" d="m 53 106 c -29.2 0 -53 -23.8 -53 -53 s 23.8 -53 53 -53 c 29.2 0 53 23.8 53 53 s -23.8 53 -53 53 z m 0 -96 c -23.7 0 -43 19.3 -43 43 s 19.3 43 43 43 s 43 -19.3 43 -43 s -19.3 -43 -43 -43 z" stroke-linecap="round" />
</g>
<g transform="matrix(0.05 0 0 0.05 260 300)"  >
<path style="stroke: none; stroke-width: 1; stroke-dasharray: none; stroke-linecap: butt; stroke-dashoffset: 0; stroke-linejoin: miter; stroke-miterlimit: 4; fill: rgb(0,0,0); fill-rule: nonzero; opacity: 1;"  transform=" translate(-53, -53)" d="m 53 106 c -29.2 0 -53 -23.8 -53 -53 s 23.8 -53 53 -53 c 29.2 0 53 23.8 53 53 s -23.8 53 -53 53 z m 0 -96 c -23.7 0 -43 19.3 -43 43 s 19.3 43 43 43 s 43 -19.3 43 -43 s -19.3 -43 -43 -43 z" stroke-linecap="round" />
</g>
<g transform="matrix(0.05 0 0 0.05 340 300)"  >
<path style="stroke: none; stroke-width: 1; stroke-dasharray: none; stroke-linecap: butt; stroke-dashoffset: 0; stroke-linejoin: miter; stroke-miterlimit: 4; fill: rgb(0,0,0); fill-rule: nonzero; opacity: 1;"  transform=" translate(-53, -53)" d="m 53 106 c -29.2 0 -53 -23.8 -53 -53 s 23.8 -53 53 -53 c 29.2 0 53 23.8 53 53 s -23.8 53 -53 53 z m 0 -96 c -23.7 0 -43 19.3 -43 43 s 19.3 43 43 43 s 43 -19.3 43 -43 s -19.3 -43 -43 -43 z" stroke-linecap="round" />
</g>
<g transform="matrix(0.05 0 0 0.05 420 300)"  >
<path style="stroke: none; stroke-width: 1; stroke-dasharray: none; stroke-linecap: butt; stroke-dashoffset: 0; stroke-linejoin: miter; stroke-miterlimit: 4; fill: rgb(0,0,0); fill-rule: nonzero; opacity: 1;"  transform=" translate(-53, -53)" d="m 53 106 c -29.2 0 -53 -23.8 -53 -53 s 23.8 -53 53 -53 c 29.2 0 53 23.8 53 53 s -23.8 53 -53 53 z m 0 -96 c -23.7 0 -43 19.3 -43 43 s 19.3 43 43 43 s 43 -19.3 43 -43 s -19.3 -43 -43 -43 z" stroke-linecap="round" />
</g>
<g transform="matrix(0.05 0 0 0.05 500 300)"  >
<path style="stroke: none; stroke-width: 1; stroke-dasharray: none; stroke-linecap: butt; stroke-dashoffset: 0; stroke-linejoin: miter; stroke-miterlimit: 4; fill: rgb(0,0,0); fill-rule: nonzero; opacity: 1;"  transform=" translate(-53, -53)" d="m 53 106 c -29.2 0 -53 -23.8 -53 -53 s 23.8 -53 53 -53 c 29.2 0 53 23.8 53 53 s -23.8 53 -53 53 z m 0 -96 c -23.7 0 -43 19.3 -43 43 s 19.3 43 43 43 s 43 -19.3 43 -43 s -19.3 -43 -43 -43 z" stroke-linecap="round" />
</g>
<g transform="matrix(0.05 0 0 0.05 60 380)"  >
<path style="stroke: none; stroke-width: 1; stroke-dasharray: none; stroke-linecap: butt; stroke-dashoffset: 0; stroke-linejoin: miter; stroke-miterlimit: 4; fill: rgb(0,0,0); fill-rule: nonzero; opacity: 1;"  transform=" translate(-53, -53)" d="m 53 106 c -29.2 0 -53 -23.8 -53 -53 s 23.8 -53 53 -53 c 29.2 0 53 23.8 53 53 s -23.8 53 -53 53 z m 0 -96 c -23.7 0 -43 19.3 -43 43 s 19.3 43 43 43 s 43 -19.3 43 -43 s -19.3 -43 -43 -43 z" stroke-linecap="round" />
</g>
<g transform="matrix(0.05 0 0 0.05 140 380)"  >
<path style="stroke: none; stroke-width: 1; stroke-dasharray: none; stroke-linecap: butt; stroke-dashoffset: 0; stroke-linejoin: miter; stroke-miterlimit: 4; fill: rgb(0,0,0); fill-rule: nonzero; opacity: 1;"  transform=" translate(-53, -53)" d="m 53 106 c -29.2 0 -53 -23.8 -53 -53 s 23.8 -53 53 -53 c 29.2 0 53 23.8 53 53 s -23.8 53 -53 53 z m 0 -96 c -23.7 0 -43 19.3 -43 43 s 19.3 43 43 43 s 43 -19.3 43 -43 s -19.3 -43 -43 -43 z" stroke-linecap="round" />
</g>
<g transform="matrix(0.05 0 0 0.05 220 380)"  >
<path style="stroke: none; stroke-width: 1; stroke-dasharray: none; stroke-linecap: butt; stroke-dashoffset: 0; stroke-linejoin: miter; stroke-miterlimit: 4; fill: rgb(0,0,0); fill-rule: nonzero; opacity: 1;"  transform=" translate(-53, -53)" d="m 53 106 c -29.2 0 -53 -23.8 -53 -53 s 23.8 -53 53 -53 c 29.2 0 53 23.8 53 53 s -23.8 53 -53 53 z m 0 -96 c -23.7 0 -43 19.3 -43 43 s 19.3 43 43 43 s 43 -19.3 43 -43 s -19.3 -43 -43 -43 z" stroke-linecap="round" />
</g>
<g transform="matrix(0.05 0 0 0.05 300 380)"  >
<path style="stroke: none; stroke-width: 1; stroke-dasharray: none; stroke-linecap: butt; stroke-dashoffset: 0; stroke-linejoin: miter; stroke-miterlimit: 4; fill: rgb(0,0,0); fill-rule: nonzero; opacity: 1;"  transform=" translate(-53, -53)" d="m 53 106 c -29.2 0 -53 -23.8 -53 -53 s 23.8 -53 53 -53 c 29.2 0 53 23.8 53 53 s -23.8 53 -53 53 z m 0 -96 c -23.7 0 -43 19.3 -43 43 s 19.3 43 43 43 s 43 -19.3 43 -43 s -19.3 -43 -43 -43 z" stroke-linecap="round" />
</g>
<g transform="matrix(0.05 0 0 0.05 380 380)"  >
<path style="stroke: none; stroke-width: 1; stroke-dasharray: none; stroke-linecap: butt; stroke-dashoffset: 0; stroke-linejoin: miter; stroke-miterlimit: 4; fill: rgb(0,0,0); fill-rule: nonzero; opacity: 1;"  transform=" translate(-53, -53)" d="m 53 106 c -29.2 0 -53 -23.8 -53 -53 s 23.8 -53 53 -53 c 29.2 0 53 23.8 53 53 s -23.8 53 -53 53 z m 0 -96 c -23.7 0 -43 19.3 -43 43 s 19.3 43 43 43 s 43 -19.3 43 -43 s -19.3 -43 -43 -43 z" stroke-linecap="round" />
</g>
<g transform="matrix(0.05 0 0 0.05 460 380)"  >
<path style="stroke: none; stroke-width: 1; stroke-dasharray: none; stroke-linecap: butt; stroke-dashoffset: 0; stroke-linejoin: miter; stroke-miterlimit: 4; fill: rgb(0,0,0); fill-rule: nonzero; opacity: 1;"  transform=" translate(-53, -53)" d="m 53 106 c -29.2 0 -53 -23.8 -53 -53 s 23.8 -53 53 -53 c 29.2 0 53 23.8 53 53 s -23.8 53 -53 53 z m 0 -96 c -23.7 0 -43 19.3 -43 43 s 19.3 43 43 43 s 43 -19.3 43 -43 s -19.3 -43 -43 -43 z" stroke-linecap="round" />
</g>
<g transform="matrix(0.05 0 0 0.05 540 380)"  >
<path style="stroke: none; stroke-width: 1; stroke-dasharray: none; stroke-linecap: butt; stroke-dashoffset: 0; stroke-linejoin: miter; stroke-miterlimit: 4; fill: rgb(0,0,0); fill-rule: nonzero; opacity: 1;"  transform=" translate(-53, -53)" d="m 53 106 c -29.2 0 -53 -23.8 -53 -53 s 23.8 -53 53 -53 c 29.2 0 53 23.8 53 53 s -23.8 53 -53 53 z m 0 -96 c -23.7 0 -43 19.3 -43 43 s 19.3 43 43 43 s 43 -19.3 43 -43 s -19.3 -43 -43 -43 z" stroke-linecap="round" />
</g>
<g transform="matrix(0.05 0 0 0.05 100 460)"  >
<path style="stroke: none; stroke-width: 1; stroke-dasharray: none; stroke-linecap: butt; stroke-dashoffset: 0; stroke-linejoin: miter; stroke-miterlimit: 4; fill: rgb(0,0,0); fill-rule: nonzero; opacity: 1;"  transform=" translate(-53, -53)" d="m 53 106 c -29.2 0 -53 -23.8 -53 -53 s 23.8 -53 53 -53 c 29.2 0 53 23.8 53 53 s -23.8 53 -53 53 z m 0 -96 c -23.7 0 -43 19.3 -43 43 s 19.3 43 43 43 s 43 -19.3 43 -43 s -19.3 -43 -43 -43 z" stroke-linecap="round" />
</g>
<g transform="matrix(0.05 0 0 0.05 180 460)"  >
<path style="stroke: none; stroke-width: 1; stroke-dasharray: none; stroke-linecap: butt; stroke-dashoffset: 0; stroke-linejoin: miter; stroke-miterlimit: 4; fill: rgb(0,0,0); fill-rule: nonzero; opacity: 1;"  transform=" translate(-53, -53)" d="m 53 106 c -29.2 0 -53 -23.8 -53 -53 s 23.8 -53 53 -53 c 29.2 0 53 23.8 53 53 s -23.8 53 -53 53 z m 0 -96 c -23.7 0 -43 19.3 -43 43 s 19.3 43 43 43 s 43 -19.3 43 -43 s -19.3 -43 -43 -43 z" stroke-linecap="round" />
</g>
<g transform="matrix(0.05 0 0 0.05 260 460)"  >
<path style="stroke: none; stroke-width: 1; stroke-dasharray: none; stroke-linecap: butt; stroke-dashoffset: 0; stroke-linejoin: miter; stroke-miterlimit: 4; fill: rgb(0,0,0); fill-rule: nonzero; opacity: 1;"  transform=" translate(-53, -53)" d="m 53 106 c -29.2 0 -53 -23.8 -53 -53 s 23.8 -53 53 -53 c 29.2 0 53 23.8 53 53 s -23.8 53 -53 53 z m 0 -96 c -23.7 0 -43 19.3 -43 43 s 19.3 43 43 43 s 43 -19.3 43 -43 s -19.3 -43 -43 -43 z" stroke-linecap="round" />
</g>
<g transform="matrix(0.05 0 0 0.05 340 460)"  >
<path style="stroke: none; stroke-width: 1; stroke-dasharray: none; stroke-linecap: butt; stroke-dashoffset: 0; stroke-linejoin: miter; stroke-miterlimit: 4; fill: rgb(0,0,0); fill-rule: nonzero; opacity: 1;"  transform=" translate(-53, -53)" d="m 53 106 c -29.2 0 -53 -23.8 -53 -53 s 23.8 -53 53 -53 c 29.2 0 53 23.8 53 53 s -23.8 53 -53 53 z m 0 -96 c -23.7 0 -43 19.3 -43 43 s 19.3 43 43 43 s 43 -19.3 43 -43 s -19.3 -43 -43 -43 z" stroke-linecap="round" />
</g>
<g transform="matrix(0.05 0 0 0.05 420 460)"  >
<path style="stroke: none; stroke-width: 1; stroke-dasharray: none; stroke-linecap: butt; stroke-dashoffset: 0; stroke-linejoin: miter; stroke-miterlimit: 4; fill: rgb(0,0,0); fill-rule: nonzero; opacity: 1;"  transform=" translate(-53, -53)" d="m 53 106 c -29.2 0 -53 -23.8 -53 -53 s 23.8 -53 53 -53 c 29.2 0 53 23.8 53 53 s -23.8 53 -53 53 z m 0 -96 c -23.7 0 -43 19.3 -43 43 s 19.3 43 43 43 s 43 -19.3 43 -43 s -19.3 -43 -43 -43 z" stroke-linecap="round" />
</g>
<g transform="matrix(0.05 0 0 0.05 500 460)"  >
<path style="stroke: none; stroke-width: 1; stroke-dasharray: none; stroke-linecap: butt; stroke-dashoffset: 0; stroke-linejoin: miter; stroke-miterlimit: 4; fill: rgb(0,0,0); fill-rule: nonzero; opacity: 1;"  transform=" translate(-53, -53)" d="m 53 106 c -29.2 0 -53 -23.8 -53 -53 s 23.8 -53 53 -53 c 29.2 0 53 23.8 53 53 s -23.8 53 -53 53 z m 0 -96 c -23.7 0 -43 19.3 -43 43 s 19.3 43 43 43 s 43 -19.3 43 -43 s -19.3 -43 -43 -43 z" stroke-linecap="round" />
</g>
<g transform="matrix(0.05 0 0 0.05 60 540)"  >
<path style="stroke: none; stroke-width: 1; stroke-dasharray: none; stroke-linecap: butt; stroke-dashoffset: 0; stroke-linejoin: miter; stroke-miterlimit: 4; fill: rgb(0,0,0); fill-rule: nonzero; opacity: 1;"  transform=" translate(-53, -53)" d="m 53 106 c -29.2 0 -53 -23.8 -53 -53 s 23.8 -53 53 -53 c 29.2 0 53 23.8 53 53 s -23.8 53 -53 53 z m 0 -96 c -23.7 0 -43 19.3 -43 43 s 19.3 43 43 43 s 43 -19.3 43 -43 s -19.3 -43 -43 -43 z" stroke-linecap="round" />
</g>
<g transform="matrix(0.05 0 0 0.05 140 540)"  >
<path style="stroke: none; stroke-width: 1; stroke-dasharray: none; stroke-linecap: butt; stroke-dashoffset: 0; stroke-linejoin: miter; stroke-miterlimit: 4; fill: rgb(0,0,0); fill-rule: nonzero; opacity: 1;"  transform=" translate(-53, -53)" d="m 53 106 c -29.2 0 -53 -23.8 -53 -53 s 23.8 -53 53 -53 c 29.2 0 53 23.8 53 53 s -23.8 53 -53 53 z m 0 -96 c -23.7 0 -43 19.3 -43 43 s 19.3 43 43 43 s 43 -19.3 43 -43 s -19.3 -43 -43 -43 z" stroke-linecap="round" />
</g>
<g transform="matrix(0.05 0 0 0.05 220 540)"  >
<path style="stroke: none; stroke-width: 1; stroke-dasharray: none; stroke-linecap: butt; stroke-dashoffset: 0; stroke-linejoin: miter; stroke-miterlimit: 4; fill: rgb(0,0,0); fill-rule: nonzero; opacity: 1;"  transform=" translate(-53, -53)" d="m 53 106 c -29.2 0 -53 -23.8 -53 -53 s 23.8 -53 53 -53 c 29.2 0 53 23.8 53 53 s -23.8 53 -53 53 z m 0 -96 c -23.7 0 -43 19.3 -43 43 s 19.3 43 43 43 s 43 -19.3 43 -43 s -19.3 -43 -43 -43 z" stroke-linecap="round" />
</g>
<g transform="matrix(0.05 0 0 0.05 300 540)"  >
<path style="stroke: none; stroke-width: 1; stroke-dasharray: none; stroke-linecap: butt; stroke-dashoffset: 0; stroke-linejoin: miter; stroke-miterlimit: 4; fill: rgb(0,0,0); fill-rule: nonzero; opacity: 1;"  transform=" translate(-53, -53)" d="m 53 106 c -29.2 0 -53 -23.8 -53 -53 s 23.8 -53 53 -53 c 29.2 0 53 23.8 53 53 s -23.8 53 -53 53 z m 0 -96 c -23.7 0 -43 19.3 -43 43 s 19.3 43 43 43 s 43 -19.3 43 -43 s -19.3 -43 -43 -43 z" stroke-linecap="round" />
</g>
<g transform="matrix(0.05 0 0 0.05 380 540)"  >
<path style="stroke: none; stroke-width: 1; stroke-dasharray: none; stroke-linecap: butt; stroke-dashoffset: 0; stroke-linejoin: miter; stroke-miterlimit: 4; fill: rgb(0,0,0); fill-rule: nonzero; opacity: 1;"  transform=" translate(-53, -53)" d="m 53 106 c -29.2 0 -53 -23.8 -53 -53 s 23.8 -53 53 -53 c 29.2 0 53 23.8 53 53 s -23.8 53 -53 53 z m 0 -96 c -23.7 0 -43 19.3 -43 43 s 19.3 43 43 43 s 43 -19.3 43 -43 s -19.3 -43 -43 -43 z" stroke-linecap="round" />
</g>
<g transform="matrix(0.05 0 0 0.05 460 540)"  >
<path style="stroke: none; stroke-width: 1; stroke-dasharray: none; stroke-linecap: butt; stroke-dashoffset: 0; stroke-linejoin: miter; stroke-miterlimit: 4; fill: rgb(0,0,0); fill-rule: nonzero; opacity: 1;"  transform=" translate(-53, -53)" d="m 53 106 c -29.2 0 -53 -23.8 -53 -53 s 23.8 -53 53 -53 c 29.2 0 53 23.8 53 53 s -23.8 53 -53 53 z m 0 -96 c -23.7 0 -43 19.3 -43 43 s 19.3 43 43 43 s 43 -19.3 43 -43 s -19.3 -43 -43 -43 z" stroke-linecap="round" />
</g>
<g transform="matrix(0.05 0 0 0.05 540 540)"  >
<path style="stroke: none; stroke-width: 1; stroke-dasharray: none; stroke-linecap: butt; stroke-dashoffset: 0; stroke-linejoin: miter; stroke-miterlimit: 4; fill: rgb(0,0,0); fill-rule: nonzero; opacity: 1;"  transform=" translate(-53, -53)" d="m 53 106 c -29.2 0 -53 -23.8 -53 -53 s 23.8 -53 53 -53 c 29.2 0 53 23.8 53 53 s -23.8 53 -53 53 z m 0 -96 c -23.7 0 -43 19.3 -43 43 s 19.3 43 43 43 s 43 -19.3 43 -43 s -19.3 -43 -43 -43 z" stroke-linecap="round" />
</g>
</svg>