<svg fill="#000000" xmlns="http://www.w3.org/2000/svg"  viewBox="0 0 80 80" width="50px" height="50px"><path fill="none" stroke="#000000" stroke-miterlimit="10" stroke-width="2" d="M40 8A32 32 0 1 0 40 72A32 32 0 1 0 40 8Z"/><path fill="none" stroke="#000000" stroke-linecap="round" stroke-linejoin="round" stroke-miterlimit="10" stroke-width="2" d="M58.959 40.179C65.494 39.77 69.942 40.154 72 40.415M58 44c6.928 0 11.39.978 13 1.401M8 40.415c2.058-.261 6.506-.645 13.041-.236M9 45.401C10.61 44.978 15.072 44 22 44"/><path fill="none" stroke="#000000" stroke-miterlimit="10" stroke-width="2" d="M56.647 30.743C57.377 28.381 58 24 56.354 21c-3.945 0-6.814 2.443-8.129 3.624C45.888 23.59 43.112 23 40.044 23s-5.844.59-8.328 1.624C30.4 23.443 27.717 21 23.772 21 22 24 22.75 28.233 23.48 30.743c-1.607 2.214-2.484 4.871-2.484 7.381C20.996 46.243 27.133 52 39.99 52s18.994-5.757 18.994-13.876C59.13 35.467 58.254 32.957 56.647 30.743zM31.297 60c0 0-4.316 0-5.179 0-2.158 0-4.028-.845-4.892-2.535-1.007-1.831-1.439-5.071-4.028-6.761C16.767 50.422 17.054 50 17.918 50c.863.141 2.733 1.41 3.884 2.959C23.097 54.508 24.698 56 27 56s5.576-.332 6.583-1.459"/><path fill="none" stroke="#000000" stroke-miterlimit="10" stroke-width="2" d="M49,70v-8.714C49,57.429,46.15,52,42.25,52h-4.2c-3.9,0-7.05,5.429-7.05,9.286v9.143"/><path d="M44 60A1 1 0 1 0 44 62 1 1 0 1 0 44 60zM44 64A1 1 0 1 0 44 66 1 1 0 1 0 44 64zM44 68A1 1 0 1 0 44 70 1 1 0 1 0 44 68zM36 60A1 1 0 1 0 36 62 1 1 0 1 0 36 60zM36 64A1 1 0 1 0 36 66 1 1 0 1 0 36 64zM36 68A1 1 0 1 0 36 70 1 1 0 1 0 36 68zM40 60A1 1 0 1 0 40 62 1 1 0 1 0 40 60zM40 64A1 1 0 1 0 40 66 1 1 0 1 0 40 64zM40 68A1 1 0 1 0 40 70 1 1 0 1 0 40 68zM54 38.5c-.13 0-.26-.021-.38-.08-.12-.05-.23-.12-.33-.21-.09-.101-.16-.21-.21-.33S53 37.63 53 37.5s.03-.26.08-.38.12-.23.21-.33c.05-.04.1-.08.149-.12.061-.04.12-.07.181-.09.06-.03.12-.05.18-.061.33-.069.68.04.91.271C54.89 36.979 55 37.24 55 37.5c0 .13-.03.26-.08.38s-.12.229-.21.33c-.101.09-.21.16-.33.21C54.26 38.479 54.13 38.5 54 38.5zM29.63 45.109c-.46-.31-.58-.93-.28-1.39l0 0c.311-.46.931-.58 1.391-.28l0 0c.46.311.579.931.279 1.391l0 0c-.2.29-.51.439-.84.439l0 0C29.99 45.27 29.8 45.22 29.63 45.109zM49.01 44.81c-.31-.45-.19-1.08.271-1.38l0 0c.46-.31 1.079-.189 1.39.271l0 0c.3.46.18 1.08-.28 1.39l0 0c-.17.11-.359.17-.55.17l0 0C49.51 45.26 49.2 45.1 49.01 44.81zM26.41 41.97c-.311-.46-.19-1.08.27-1.39l0 0c.46-.311 1.08-.181 1.39.279l0 0c.311.46.181 1.08-.279 1.381l0 0c-.17.119-.36.17-.55.17l0 0C26.92 42.41 26.6 42.26 26.41 41.97zM52.229 42.22c-.47-.3-.59-.92-.29-1.38l0 0c.311-.46.931-.59 1.391-.28l0 0c.46.3.58.92.279 1.38l0 0 0 0 0 0c-.189.29-.51.45-.829.45l0 0C52.59 42.39 52.399 42.34 52.229 42.22zM26 38.5c-.13 0-.26-.03-.38-.08s-.23-.12-.33-.21C25.1 38.02 25 37.77 25 37.5c0-.13.02-.26.08-.38.05-.13.12-.23.21-.33.05-.04.1-.09.149-.12.061-.04.12-.07.181-.09.06-.03.12-.05.18-.061.33-.06.68.04.91.271.09.1.16.2.21.33C26.97 37.24 27 37.37 27 37.5c0 .27-.101.52-.29.71C26.52 38.399 26.27 38.5 26 38.5z"/><g><path d="M26 38.5c-.13 0-.26-.03-.38-.08s-.23-.12-.33-.21C25.1 38.02 25 37.77 25 37.5c0-.13.02-.26.08-.38.05-.13.12-.23.21-.33.05-.04.1-.09.149-.12.061-.04.12-.07.181-.09.06-.03.12-.05.18-.061.33-.06.68.04.91.271.09.1.16.2.21.33C26.97 37.24 27 37.37 27 37.5c0 .27-.101.52-.29.71C26.52 38.399 26.27 38.5 26 38.5zM26.67 34.45c-.46-.311-.59-.931-.28-1.391l0 0 0 0 0 0c.3-.46.92-.59 1.38-.279l0 0c.46.3.59.92.29 1.38l0 0c-.2.29-.52.449-.84.449l0 0C27.03 34.609 26.84 34.56 26.67 34.45zM51.93 34.14c-.31-.46-.18-1.08.28-1.39l0 0c.46-.3 1.08-.181 1.38.28l0 0c.31.46.18 1.079-.271 1.39l0 0c-.17.11-.369.17-.56.17l0 0C52.439 34.59 52.12 34.43 51.93 34.14zM32.93 29.27c-.17-.529.11-1.09.64-1.27l0 0c.521-.17 1.091.12 1.261.64l0 0c.17.521-.11 1.09-.641 1.26l0 0c-.1.04-.21.051-.31.051l0 0C33.46 29.95 33.069 29.689 32.93 29.27zM45.78 29.89c-.53-.17-.811-.729-.641-1.26l0 0c.17-.53.74-.811 1.26-.64l0 0c.53.18.82.739.641 1.27l0 0c-.141.42-.53.68-.95.68l0 0C45.99 29.939 45.88 29.93 45.78 29.89zM36.93 28.21c-.06-.561.34-1.05.89-1.101l0 0c.551-.06 1.04.341 1.101.891l0 0c.05.55-.351 1.04-.9 1.1l0 0c-.029 0-.069 0-.1 0l0 0C37.41 29.1 36.979 28.72 36.93 28.21zM41.95 29.1L41.95 29.1C41.399 29.04 41 28.55 41.06 28l0 0c.05-.55.54-.95 1.09-.891l0 0c.551.051.95.54.9 1.091l0 0c-.06.52-.49.899-1 .899l0 0C42.02 29.1 41.99 29.1 41.95 29.1zM54 38.5c-.13 0-.26-.021-.38-.08-.12-.05-.23-.12-.33-.21-.09-.101-.16-.21-.21-.33S53 37.63 53 37.5s.03-.26.08-.38.12-.23.21-.33c.05-.04.1-.08.149-.12.061-.04.12-.07.181-.09.06-.03.12-.05.18-.061.33-.069.68.04.91.271C54.89 36.979 55 37.24 55 37.5c0 .13-.03.26-.08.38s-.12.229-.21.33c-.101.09-.21.16-.33.21C54.26 38.479 54.13 38.5 54 38.5z"/></g></svg>