<svg fill="#000000" xmlns="http://www.w3.org/2000/svg"  viewBox="0 0 80 80" width="50px" height="50px"><path fill="none" stroke="#000000" stroke-miterlimit="10" stroke-width="2" d="M68.5,15h-57C8.462,15,6,17.462,6,20.5v41c0,3.038,2.462,5.5,5.5,5.5h57c3.038,0,5.5-2.462,5.5-5.5v-41C74,17.462,71.538,15,68.5,15z"/><path d="M68 65A1 1 0 1 0 68 67 1 1 0 1 0 68 65zM68 61A1 1 0 1 0 68 63 1 1 0 1 0 68 61zM68 57A1 1 0 1 0 68 59 1 1 0 1 0 68 57zM68 53A1 1 0 1 0 68 55 1 1 0 1 0 68 53zM68 49A1 1 0 1 0 68 51 1 1 0 1 0 68 49zM68 45A1 1 0 1 0 68 47 1 1 0 1 0 68 45zM68 41A1 1 0 1 0 68 43 1 1 0 1 0 68 41zM68 37A1 1 0 1 0 68 39 1 1 0 1 0 68 37zM68 33A1 1 0 1 0 68 35 1 1 0 1 0 68 33zM12 61A1 1 0 1 0 12 63 1 1 0 1 0 12 61zM12 57A1 1 0 1 0 12 59 1 1 0 1 0 12 57zM12 53A1 1 0 1 0 12 55 1 1 0 1 0 12 53zM12 49A1 1 0 1 0 12 51 1 1 0 1 0 12 49zM12 45A1 1 0 1 0 12 47 1 1 0 1 0 12 45zM12 41A1 1 0 1 0 12 43 1 1 0 1 0 12 41zM12 37A1 1 0 1 0 12 39 1 1 0 1 0 12 37zM12 33A1 1 0 1 0 12 35 1 1 0 1 0 12 33zM68 29A1 1 0 1 0 68 31 1 1 0 1 0 68 29zM12 29A1 1 0 1 0 12 31 1 1 0 1 0 12 29zM12 65A1 1 0 1 0 12 67 1 1 0 1 0 12 65z"/><path fill="none" stroke="#000000" stroke-miterlimit="10" stroke-width="2" d="M74,20.486c0,1.962-0.959,3.8-2.569,4.922L40,47.313L8.569,25.408C6.959,24.286,6,22.448,6,20.486"/><path fill="none" stroke="#000000" stroke-dasharray=".1,4" stroke-linecap="round" stroke-miterlimit="10" stroke-width="2" d="M7.984 17L40 39.313 72.016 17"/></svg>