<svg fill="#000000" xmlns="http://www.w3.org/2000/svg"  viewBox="0 0 50 50" width="50px" height="50px"><path fill="none" stroke="#000000" stroke-linejoin="round" stroke-miterlimit="10" stroke-width="2" d="M25,2C16.16,2,9,9.16,9,18	c0,3.71,1.26,7.12,3.37,9.83c2.52,3.4,10.8,13.19,11.57,19.3c0.07,0.5,0.5,0.87,1,0.87c0.51,0,0.94-0.37,1-0.87	c0.75-5.95,8.68-15.31,11.41-18.95c0.03-0.04,0.06-0.07,0.08-0.1C39.66,25.33,41,21.82,41,18C41,9.16,33.84,2,25,2z M25,11	c3.87,0,7,3.13,7,7s-3.13,7-7,7s-7-3.13-7-7S21.13,11,25,11z"/><line x1="10.53" x2="28.53" y1="24.615" y2="2.615" fill="none" stroke="#000000" stroke-linejoin="round" stroke-miterlimit="10" stroke-width="2"/><line x1="18.86" x2="39.607" y1="36.536" y2="11.178" fill="none" stroke="#000000" stroke-linejoin="round" stroke-miterlimit="10" stroke-width="2"/><line x1="13.02" x2="20.003" y1="7.392" y2="13.037" fill="none" stroke="#000000" stroke-linejoin="round" stroke-miterlimit="10" stroke-width="2"/></svg>