<svg fill="#000000" xmlns="http://www.w3.org/2000/svg"  viewBox="0 0 80 80" width="50px" height="50px"><path fill="none" stroke="#000000" stroke-miterlimit="10" stroke-width="2" d="M34,51l23.106,18.53c4.016,1.73,5.477-1.874,5.477-1.874l10.236-51.78c0.908-4.009-1.788-4.335-3.92-3.507C66.88,13.157,9.568,37.015,9.568,37.015s-2.776,0.937-2.556,2.667c0.22,1.73,2.484,2.523,2.484,2.523L24,47c0,0,4.122,14.341,5,17.079c0.878,2.741,1.579,2.806,1.579,2.806c0.814,0.35,1.56-0.209,1.56-0.209L42,58"/><path fill="none" stroke="#000000" stroke-miterlimit="10" stroke-width="2" d="M61.923,24.092c0.417-1.542-1-1-1-1L24,47"/><path fill="none" stroke="#000000" stroke-linecap="round" stroke-miterlimit="10" stroke-width="2" d="M34 51L34 51"/><path fill="none" stroke="#000000" stroke-dasharray="0,3.8897" stroke-linecap="round" stroke-miterlimit="10" stroke-width="2" d="M36.8 48.3L60.6 25.35"/><path fill="none" stroke="#000000" stroke-linecap="round" stroke-miterlimit="10" stroke-width="2" d="M62 24L62 24"/><path fill="none" stroke="#000000" stroke-miterlimit="10" stroke-width="2" d="M31.078,66.656L34,51"/></svg>